<svg width="122" height="122" viewBox="0 0 122 122" fill="none" xmlns="http://www.w3.org/2000/svg">
<rect width="122" height="122" rx="61" fill="#CCC5B9"/>
<path fill-rule="evenodd" clip-rule="evenodd" d="M79.3007 48.8C79.3007 58.9068 71.1076 67.1 61.0007 67.1C50.8939 67.1 42.7007 58.9068 42.7007 48.8C42.7007 38.6932 50.8939 30.5 61.0007 30.5C71.1076 30.5 79.3007 38.6932 79.3007 48.8ZM73.2007 48.8C73.2007 55.5379 67.7386 61 61.0007 61C54.2629 61 48.8007 55.5379 48.8007 48.8C48.8007 42.0621 54.2629 36.6 61.0007 36.6C67.7386 36.6 73.2007 42.0621 73.2007 48.8Z" fill="#EB5E28"/>
<path d="M61.0007 76.25C41.2539 76.25 24.429 87.9267 18.02 104.286C19.5813 105.836 21.226 107.303 22.9468 108.678C27.7192 93.6585 42.6907 82.35 61.0007 82.35C79.3108 82.35 94.2823 93.6585 99.0547 108.678C100.776 107.303 102.42 105.836 103.981 104.286C97.5725 87.9267 80.7476 76.25 61.0007 76.25Z" fill="#EB5E28"/>
</svg>